<?xml version="1.0" encoding="UTF-8"?>
<svg viewBox="0 0 253.90588 181.6145" xmlns="http://www.w3.org/2000/svg" xmlns:xlink="http://www.w3.org/1999/xlink">
 <defs>
  <filter id="e">
   <feGaussianBlur stdDeviation="2.3555"/>
  </filter>
  <filter id="f" x="-.07768" y="-.26759" width="1.1554" height="1.5352">
   <feGaussianBlur stdDeviation="5.6231"/>
  </filter>
  <linearGradient id="c">
   <stop stop-color="#a80" stop-opacity="0" offset="0"/>
   <stop stop-color="#a80" offset="1"/>
  </linearGradient>
  <radialGradient id="d" cx="644.85" cy="966.26" r="105.88" gradientTransform="matrix(-.06685 -1.0387 2.5373 -.16327 -1770.7 1751)" gradientUnits="userSpaceOnUse">
   <stop stop-color="#fff" offset="0"/>
   <stop stop-color="#806600" stop-opacity="0" offset="1"/>
  </radialGradient>
  <radialGradient id="a" cx="511.88" cy="613.06" r="10.079" gradientTransform="matrix(1.4286 2.3955e-6 -1.9164e-6 1.1429 -219.38 -88.302)" gradientUnits="userSpaceOnUse" xlink:href="#c"/>
  <radialGradient id="b" cx="513.57" cy="609.75" r="10.079" gradientTransform="matrix(1.4286 2.3955e-6 -1.9164e-6 1.1429 -219.38 -88.302)" gradientUnits="userSpaceOnUse" xlink:href="#c"/>
 </defs>
 <g transform="translate(-483.31 -777.76)">
  <path d="m486.93 924.32s-10.667 3.88 10.667 9.6999 207.59 32.98 224 23.28 18.461-21.34 12.718-29.488-9.0256-11.252-9.0256-11.252c-24.599-35.389-158.91 5.1733-238.36 7.7599z" fill="#806600" opacity=".5763"/>
  <path d="m687.55 780.94s-203.75 54.716-203.75 61.196-3.5998 4.3197 17.279 5.7596 201.59 2.1598 215.26-10.799-17.999-51.836-21.598-52.556-7.1995-3.5998-7.1995-3.5998z" fill="#ffe680"/>
  <path d="m484.32 843.99s-2.8515 31.385-1.7323 55.037c0.92743 16.522-1.1473 26.365 14.138 28.918 114.84 19.158 224.47 20.751 220.86-3.3202 0 0 1.5612-15.744 3.8411-33.054 2.5103-19.06 1.2702-61.979-0.96128-61.979" fill="#ffd42a" stroke="#806600"/>
  <path d="m502.47 852.24s10.33 35.51 5.8107 54.879c-3.7709 15.277-8.3931 18.12 5.3146 20.41 102.98 17.18 200.88 18.189 197.64-3.3975 0 0 3.9505-29.272 7.1786-46.059s-4.1761-38.745-4.1761-38.745" fill="url(#d)" filter="url(#e)" opacity=".3831"/>
  <path d="m721.53 835c-1.8129-31.44-23.149-47.137-24.761-50.456-0.80501-1.6581-7.1023-3.6548-7.2684-3.5998 0 0-213.77 50.938-204.97 63.356" fill="#ffe680" stroke="#a80" stroke-width="1.0048"/>
  <path transform="translate(0 308.27)" d="m521.96 608.02c0 4.7714-4.5126 8.6394-10.079 8.6394s-10.079-3.868-10.079-8.6394 4.5127-8.6394 10.079-8.6394 10.079 3.868 10.079 8.6394z" fill="url(#a)"/>
  <path transform="matrix(.82314 .07167 -.07167 .82314 167.55 335.27)" d="m521.96 608.02c0 4.7714-4.5126 8.6394-10.079 8.6394s-10.079-3.868-10.079-8.6394 4.5127-8.6394 10.079-8.6394 10.079 3.868 10.079 8.6394z" fill="url(#a)"/>
  <path transform="matrix(1.1043 .19141 -.19141 1.1043 151.24 94.055)" d="m521.96 608.02c0 4.7714-4.5126 8.6394-10.079 8.6394s-10.079-3.868-10.079-8.6394 4.5127-8.6394 10.079-8.6394 10.079 3.868 10.079 8.6394z" fill="url(#a)"/>
  <path transform="matrix(1.0152 .18769 -.18769 1.0152 220.95 188.77)" d="m521.96 608.02c0 4.7714-4.5126 8.6394-10.079 8.6394s-10.079-3.868-10.079-8.6394 4.5127-8.6394 10.079-8.6394 10.079 3.868 10.079 8.6394z" fill="url(#a)"/>
  <path transform="matrix(.84784 -.15939 .15939 .84784 113.79 434.47)" d="m521.96 608.02c0 4.7714-4.5126 8.6394-10.079 8.6394s-10.079-3.868-10.079-8.6394 4.5127-8.6394 10.079-8.6394 10.079 3.868 10.079 8.6394z" fill="url(#a)"/>
  <path transform="matrix(.9054 .08812 -.08812 .9054 264.82 284.11)" d="m521.96 608.02c0 4.7714-4.5126 8.6394-10.079 8.6394s-10.079-3.868-10.079-8.6394 4.5127-8.6394 10.079-8.6394 10.079 3.868 10.079 8.6394z" fill="url(#a)"/>
  <path transform="matrix(.86933 .14002 -.14002 .86933 332.8 255.26)" d="m521.96 608.02c0 4.7714-4.5126 8.6394-10.079 8.6394s-10.079-3.868-10.079-8.6394 4.5127-8.6394 10.079-8.6394 10.079 3.868 10.079 8.6394z" fill="url(#a)"/>
  <path transform="matrix(.93507 .09341 -.09341 .93507 273.7 301.88)" d="m521.96 608.02c0 4.7714-4.5126 8.6394-10.079 8.6394s-10.079-3.868-10.079-8.6394 4.5127-8.6394 10.079-8.6394 10.079 3.868 10.079 8.6394z" fill="url(#a)"/>
  <path transform="matrix(.94149 -.07884 .07884 .94149 134.04 390.26)" d="m521.96 608.02c0 4.7714-4.5126 8.6394-10.079 8.6394s-10.079-3.868-10.079-8.6394 4.5127-8.6394 10.079-8.6394 10.079 3.868 10.079 8.6394z" fill="url(#a)"/>
  <path transform="matrix(.74623 -.03642 .03642 .74623 189.25 492.33)" d="m521.96 608.02c0 4.7714-4.5126 8.6394-10.079 8.6394s-10.079-3.868-10.079-8.6394 4.5127-8.6394 10.079-8.6394 10.079 3.868 10.079 8.6394z" fill="url(#a)"/>
  <path transform="matrix(1.0742 -.18804 .18804 1.0742 -99.617 360.86)" d="m521.96 608.02c0 4.7714-4.5126 8.6394-10.079 8.6394s-10.079-3.868-10.079-8.6394 4.5127-8.6394 10.079-8.6394 10.079 3.868 10.079 8.6394z" fill="url(#a)"/>
  <path transform="matrix(.79873 .0115 -.0115 .79873 104.37 368.52)" d="m521.96 608.02c0 4.7714-4.5126 8.6394-10.079 8.6394s-10.079-3.868-10.079-8.6394 4.5127-8.6394 10.079-8.6394 10.079 3.868 10.079 8.6394z" fill="url(#a)"/>
  <path transform="matrix(.67157 -.12625 .12625 .67157 165.49 547.84)" d="m521.96 608.02c0 4.7714-4.5126 8.6394-10.079 8.6394s-10.079-3.868-10.079-8.6394 4.5127-8.6394 10.079-8.6394 10.079 3.868 10.079 8.6394z" fill="url(#b)"/>
  <path transform="matrix(.67157 -.12625 .12625 .67157 113.66 560.08)" d="m521.96 608.02c0 4.7714-4.5126 8.6394-10.079 8.6394s-10.079-3.868-10.079-8.6394 4.5127-8.6394 10.079-8.6394 10.079 3.868 10.079 8.6394z" fill="url(#b)"/>
  <path transform="matrix(.67157 -.12625 .12625 .67157 98.539 534.88)" d="m521.96 608.02c0 4.7714-4.5126 8.6394-10.079 8.6394s-10.079-3.868-10.079-8.6394 4.5127-8.6394 10.079-8.6394 10.079 3.868 10.079 8.6394z" fill="url(#b)"/>
  <path transform="matrix(1 -.07473 0 .6825 -4.1248 300.81)" d="m679.22 786.7s-149.88 40.753-149.88 45.58-2.648 3.2174 12.71 4.2898 148.29 1.6087 158.35-8.0434-13.24-38.609-15.888-39.145-5.296-2.6812-5.296-2.6812z" fill="#fff6d5" filter="url(#f)" opacity=".7763"/>
  <path transform="matrix(.74623 -.03642 .03642 .74623 189.25 492.33)" d="m521.96 608.02c0 4.7714-4.5126 8.6394-10.079 8.6394s-10.079-3.868-10.079-8.6394 4.5127-8.6394 10.079-8.6394 10.079 3.868 10.079 8.6394z" fill="url(#a)"/>
 </g>
</svg>
